<svg version="1.1" xmlns="http://www.w3.org/2000/svg" xmlns:xlink="http://www.w3.org/1999/xlink" width="202.75692749023438" height="36.28001403808594"><defs></defs><g transform="translate(-111.5134506225586,24.236007690429688)"><rect fill="rgb(255,255,255)" stroke="none" x="0" y="0" width="202.75692749023438" height="36.28001403808594" fill-opacity="0" transform="translate(111.5134506225586,-24.236007690429688)"></rect><g transform="translate(101.61595153808594,18.143999099731445) rotate(0,0,0) translate(-101.61595153808594,-18.143999099731445) matrix(1,0,0,1,101.61595153808594,18.143999099731445)"><path fill="#FFFFFF" fill-opacity="1" d="M55.68-34.18L55.68-34.18Q55.78-34.08 55.78-33.91Q55.78-33.74 55.54-33.46L55.54-33.46Q53.95-31.73 52.70-29.50Q51.46-27.26 50.57-24.62Q49.68-21.98 49.20-19.06Q48.72-16.13 48.72-13.06L48.72-13.06Q48.72-10.75 49.30-9.48Q49.87-8.21 51.26-8.21L51.26-8.21Q53.14-8.21 54.91-10.90L54.91-10.90Q55.06-10.99 55.20-10.90Q55.34-10.80 55.25-10.61L55.25-10.61Q54.77-9.79 54.12-9.00Q53.47-8.21 52.75-7.56Q52.03-6.91 51.34-6.50Q50.64-6.10 50.06-6.10L50.06-6.10Q48.48-6.10 47.64-7.70Q46.80-9.31 46.80-11.81L46.80-11.81Q46.80-15.65 47.66-19.63L47.66-19.63Q45.41-19.63 43.22-19.58Q41.04-19.54 38.93-19.44L38.93-19.44Q37.34-17.76 35.88-16.27Q34.42-14.78 33.02-13.54L33.02-13.54Q29.18-10.03 25.13-8.06Q21.07-6.10 16.22-6.10L16.22-6.10Q13.78-6.10 12.26-7.27Q10.75-8.45 10.20-10.22Q9.65-12.00 10.10-14.14Q10.56-16.27 12.14-18.14L12.14-18.14Q12.29-18.24 12.48-18.12Q12.67-18.00 12.62-17.66L12.62-17.66Q11.47-16.42 11.26-14.78Q11.04-13.15 11.76-11.66Q12.48-10.18 14.21-9.17Q15.94-8.16 18.72-8.16L18.72-8.16Q22.37-8.16 26.09-9.89Q29.81-11.62 33.12-14.74L33.12-14.74Q34.18-15.70 35.30-16.87Q36.43-18.05 37.68-19.39L37.68-19.39Q34.37-19.15 31.73-18.82L31.73-18.82Q31.49-18.86 31.63-19.06Q31.78-19.25 32.09-19.46Q32.40-19.68 32.81-19.85Q33.22-20.02 33.60-20.06L33.60-20.06Q34.18-20.11 35.50-20.14Q36.82-20.16 38.50-20.21L38.50-20.21Q41.23-23.09 44.62-26.40Q48.00-29.71 52.46-33.22L52.46-33.22Q49.25-34.27 45.82-34.97Q42.38-35.66 39.22-35.66L39.22-35.66Q35.62-35.66 33.24-33.58Q30.86-31.49 30.29-27.22L30.29-27.22Q30.19-26.98 30.02-27.02Q29.86-27.07 29.81-27.31L29.81-27.31Q30.38-32.02 33.31-34.51Q36.24-37.01 40.90-37.01L40.90-37.01Q42.86-37.01 44.88-36.74Q46.90-36.48 48.82-36.07Q50.74-35.66 52.49-35.16Q54.24-34.66 55.68-34.18ZM47.81-20.26L47.81-20.26Q48.62-23.76 50.06-27.10Q51.50-30.43 53.52-33.17L53.52-33.17Q49.30-29.76 45.94-26.47Q42.58-23.18 39.70-20.21L39.70-20.21Q42.00-20.26 44.26-20.26Q46.51-20.26 47.81-20.26ZM68.83-9.17L68.83-9.17Q68.98-9.26 69.12-9.17Q69.26-9.07 69.22-8.88L69.22-8.88Q68.40-7.78 67.42-6.94Q66.43-6.10 65.57-6.10L65.57-6.10Q64.08-6.10 64.08-8.02L64.08-8.02Q64.08-9.65 64.66-11.64Q65.23-13.63 66.24-15.65L66.24-15.65Q66.43-15.98 66.43-16.32L66.43-16.32Q66.43-16.85 65.95-16.85L65.95-16.85Q64.18-16.85 62.04-14.40Q59.90-11.95 58.08-6.72L58.08-6.72Q57.98-6.43 57.55-6.26Q57.12-6.10 56.74-6.10L56.74-6.10Q56.21-6.10 56.35-6.53L56.35-6.53Q57.17-8.59 58.06-11.18Q58.94-13.78 59.62-16.32L59.62-16.32Q59.81-17.23 59.28-17.23L59.28-17.23Q58.80-17.23 58.32-16.75Q57.84-16.27 57.31-15.50L57.31-15.50Q57.22-15.41 57.10-15.55Q56.98-15.70 57.02-15.84L57.02-15.84Q57.55-16.66 58.46-17.52Q59.38-18.38 60.43-18.38L60.43-18.38Q61.63-18.38 61.25-16.75L61.25-16.75Q61.06-15.70 60.72-14.52Q60.38-13.34 60.00-12.19L60.00-12.19Q60.67-13.49 61.58-14.64Q62.50-15.79 63.48-16.61Q64.46-17.42 65.45-17.90Q66.43-18.38 67.30-18.38L67.30-18.38Q67.87-18.38 68.18-18.10Q68.50-17.81 68.50-17.42L68.50-17.42Q68.50-16.80 68.21-16.18L68.21-16.18Q67.20-14.35 66.50-12.36Q65.81-10.37 65.81-8.69L65.81-8.69Q65.81-7.49 66.58-7.49L66.58-7.49Q67.58-7.49 68.83-9.17ZM79.15-18.19L79.15-18.19Q79.39-18.10 79.34-17.90Q79.30-17.71 78.91-17.66L78.91-17.66Q78.14-17.62 77.21-17.57Q76.27-17.52 75.31-17.42L75.31-17.42Q74.35-15.02 73.73-12.82Q73.10-10.61 73.10-9.17L73.10-9.17Q73.10-7.54 74.35-7.54L74.35-7.54Q75.60-7.54 77.09-9.74L77.09-9.74Q77.23-9.84 77.38-9.72Q77.52-9.60 77.47-9.36L77.47-9.36Q77.04-8.69 76.49-8.09Q75.94-7.49 75.36-7.06Q74.78-6.62 74.26-6.36Q73.73-6.10 73.39-6.10L73.39-6.10Q72.34-6.10 71.83-6.74Q71.33-7.39 71.33-8.30L71.33-8.30Q71.33-9.89 72.00-12.29Q72.67-14.69 73.68-17.23L73.68-17.23Q73.06-17.14 72.48-17.04Q71.90-16.94 71.38-16.85L71.38-16.85Q71.14-16.90 71.26-17.09Q71.38-17.28 71.69-17.47Q72.00-17.66 72.43-17.83Q72.86-18.00 73.25-18.00L73.25-18.00Q73.49-18.05 73.66-18.05Q73.82-18.05 74.02-18.05L74.02-18.05Q74.69-19.54 75.36-20.90Q76.03-22.27 76.70-23.42L76.70-23.42Q76.99-23.71 77.35-23.93Q77.71-24.14 78.05-24.22Q78.38-24.29 78.58-24.26Q78.77-24.24 78.72-24.10L78.72-24.10Q77.90-22.85 77.11-21.31Q76.32-19.78 75.60-18.14L75.60-18.14Q76.46-18.14 77.33-18.17Q78.19-18.19 79.15-18.19ZM85.25-18.38L85.25-18.38Q86.54-18.38 87.17-17.52Q87.79-16.66 87.79-15.26L87.79-15.26Q87.79-13.63 87.17-12.00Q86.54-10.37 85.58-9.05Q84.62-7.73 83.50-6.91Q82.37-6.10 81.41-6.10L81.41-6.10Q80.26-6.10 79.58-7.01Q78.91-7.92 78.91-9.60L78.91-9.60Q78.91-10.94 79.44-12.48Q79.97-14.02 80.86-15.34Q81.74-16.66 82.87-17.52Q84.00-18.38 85.25-18.38ZM82.37-7.58L82.37-7.58Q83.09-7.58 83.78-8.09Q84.48-8.59 85.01-9.43Q85.54-10.27 85.85-11.38Q86.16-12.48 86.16-13.68L86.16-13.68Q86.16-15.12 85.68-15.96Q85.20-16.80 84.10-16.80L84.10-16.80Q83.38-16.80 82.70-16.30Q82.03-15.79 81.53-14.95Q81.02-14.11 80.74-12.98Q80.45-11.86 80.45-10.61L80.45-10.61Q80.45-7.58 82.37-7.58ZM101.81-9.17L101.81-9.17Q101.95-9.26 102.10-9.17Q102.24-9.07 102.19-8.88L102.19-8.88Q101.38-7.78 100.39-6.94Q99.41-6.10 98.54-6.10L98.54-6.10Q97.06-6.10 97.06-8.02L97.06-8.02Q97.06-9.65 97.63-11.64Q98.21-13.63 99.22-15.65L99.22-15.65Q99.41-15.98 99.41-16.32L99.41-16.32Q99.41-16.85 98.93-16.85L98.93-16.85Q97.15-16.85 95.02-14.40Q92.88-11.95 91.06-6.72L91.06-6.72Q90.96-6.43 90.53-6.26Q90.10-6.10 89.71-6.10L89.71-6.10Q89.18-6.10 89.33-6.53L89.33-6.53Q90.14-8.59 91.03-11.18Q91.92-13.78 92.59-16.32L92.59-16.32Q92.78-17.23 92.26-17.23L92.26-17.23Q91.78-17.23 91.30-16.75Q90.82-16.27 90.29-15.50L90.29-15.50Q90.19-15.41 90.07-15.55Q89.95-15.70 90.00-15.84L90.00-15.84Q90.53-16.66 91.44-17.52Q92.35-18.38 93.41-18.38L93.41-18.38Q94.61-18.38 94.22-16.75L94.22-16.75Q94.03-15.70 93.70-14.52Q93.36-13.34 92.98-12.19L92.98-12.19Q93.65-13.49 94.56-14.64Q95.47-15.79 96.46-16.61Q97.44-17.42 98.42-17.90Q99.41-18.38 100.27-18.38L100.27-18.38Q100.85-18.38 101.16-18.10Q101.47-17.81 101.47-17.42L101.47-17.42Q101.47-16.80 101.18-16.18L101.18-16.18Q100.18-14.35 99.48-12.36Q98.78-10.37 98.78-8.69L98.78-8.69Q98.78-7.49 99.55-7.49L99.55-7.49Q100.56-7.49 101.81-9.17ZM130.85-37.06L130.85-37.06Q133.10-37.06 134.93-36.19Q136.75-35.33 138.02-33.79Q139.30-32.26 139.99-30.17Q140.69-28.08 140.69-25.58L140.69-25.58Q140.69-21.65 139.18-18.12Q137.66-14.59 135.22-11.93Q132.77-9.26 129.60-7.68Q126.43-6.10 123.12-6.10L123.12-6.10Q120.58-6.10 118.66-7.01Q116.74-7.92 115.44-9.46Q114.14-10.99 113.47-13.01Q112.80-15.02 112.80-17.23L112.80-17.23Q112.80-20.88 114.19-24.46Q115.58-28.03 118.03-30.82Q120.48-33.60 123.77-35.33Q127.06-37.06 130.85-37.06ZM125.18-7.58L125.18-7.58Q127.68-7.58 130.10-8.78Q132.53-9.98 134.45-12.17Q136.37-14.35 137.57-17.40Q138.77-20.45 138.77-24.14L138.77-24.14Q138.77-29.42 136.25-32.42Q133.73-35.42 129.31-35.42L129.31-35.42Q126.10-35.42 123.43-34.13Q120.77-32.83 118.85-30.58Q116.93-28.32 115.87-25.30Q114.82-22.27 114.82-18.82L114.82-18.82Q114.82-16.32 115.51-14.26Q116.21-12.19 117.53-10.70Q118.85-9.22 120.79-8.40Q122.74-7.58 125.18-7.58ZM145.20-18.38L145.20-18.38Q146.16-18.38 146.81-18.07Q147.46-17.76 147.46-17.38L147.46-17.38Q147.46-16.85 147.24-16.18Q147.02-15.50 146.78-15.07L146.78-15.07Q146.69-14.98 146.52-15.05Q146.35-15.12 146.40-15.26L146.40-15.26Q146.54-15.60 146.59-16.03Q146.64-16.46 146.54-16.80L146.54-16.80Q146.30-17.76 145.20-17.76L145.20-17.76Q144.38-17.76 143.88-17.28Q143.38-16.80 143.38-15.84L143.38-15.84Q143.38-15.07 143.78-14.38Q144.19-13.68 144.70-12.98Q145.20-12.29 145.61-11.50Q146.02-10.70 146.02-9.74L146.02-9.74Q146.02-8.21 144.94-7.15Q143.86-6.10 141.70-6.10L141.70-6.10Q140.21-6.10 139.25-6.62Q138.29-7.15 138.29-7.73L138.29-7.73Q138.29-8.16 138.82-9.02Q139.34-9.89 140.02-10.42L140.02-10.42Q140.16-10.51 140.28-10.37Q140.40-10.22 140.30-10.08L140.30-10.08Q139.92-9.70 139.73-9.19Q139.54-8.69 139.63-8.30L139.63-8.30Q139.78-7.49 140.38-7.08Q140.98-6.67 141.79-6.67L141.79-6.67Q143.04-6.67 143.74-7.34Q144.43-8.02 144.43-9.07L144.43-9.07Q144.43-9.98 144.00-10.78Q143.57-11.57 143.06-12.31Q142.56-13.06 142.15-13.80Q141.74-14.54 141.74-15.41L141.74-15.41Q141.74-16.66 142.68-17.52Q143.62-18.38 145.20-18.38ZM168.77-41.76L168.77-41.76Q170.02-41.76 170.38-40.61Q170.74-39.46 170.06-38.16L170.06-38.16Q169.97-38.06 169.82-38.16Q169.68-38.26 169.63-38.40L169.63-38.40Q169.73-38.98 169.22-39.36Q168.72-39.74 167.66-39.74L167.66-39.74Q165.60-39.74 163.58-38.02Q161.57-36.29 159.70-33.53Q157.82-30.77 156.22-27.36Q154.61-23.95 153.43-20.57Q152.26-17.18 151.58-14.18Q150.91-11.18 150.91-9.31L150.91-9.31Q150.91-7.87 151.73-7.87L151.73-7.87Q152.30-7.87 152.86-8.35Q153.41-8.83 154.13-9.79L154.13-9.79Q154.27-9.89 154.39-9.77Q154.51-9.65 154.46-9.46L154.46-9.46Q153.50-7.97 152.35-7.03Q151.20-6.10 150.38-6.10L150.38-6.10Q149.76-6.10 149.38-6.60Q148.99-7.10 148.99-7.97L148.99-7.97Q148.99-9.31 149.47-11.45Q149.95-13.58 150.82-16.22Q151.68-18.86 152.90-21.77Q154.13-24.67 155.57-27.50Q157.01-30.34 158.62-32.93Q160.22-35.52 161.93-37.49Q163.63-39.46 165.36-40.61Q167.09-41.76 168.77-41.76ZM166.94-9.12L166.94-9.12Q167.04-9.22 167.18-9.12Q167.33-9.02 167.28-8.83L167.28-8.83Q166.27-7.44 165.29-6.77Q164.30-6.10 163.63-6.10L163.63-6.10Q163.20-6.10 162.94-6.53Q162.67-6.96 162.60-7.70Q162.53-8.45 162.65-9.38Q162.77-10.32 163.06-11.33L163.06-11.33Q161.76-9.31 160.32-7.85Q158.88-6.38 157.54-6.10L157.54-6.10Q156.67-6.10 156.07-6.94Q155.47-7.78 155.47-9.55L155.47-9.55Q155.47-11.14 156.12-12.70Q156.77-14.26 157.87-15.53Q158.98-16.80 160.42-17.57Q161.86-18.34 163.44-18.34L163.44-18.34Q164.30-18.34 164.93-18.14Q165.55-17.95 166.08-17.57L166.08-17.57Q166.37-17.81 166.87-18.02Q167.38-18.24 167.81-18.24L167.81-18.24Q168.05-18.24 167.95-18.00L167.95-18.00Q166.85-16.66 166.06-15.02Q165.26-13.39 164.83-11.86Q164.40-10.32 164.28-9.14Q164.16-7.97 164.45-7.54L164.45-7.54Q164.69-7.20 165.31-7.51Q165.94-7.82 166.94-9.12ZM158.59-7.73L158.59-7.73Q159.12-7.73 159.96-8.47Q160.80-9.22 161.71-10.42Q162.62-11.62 163.51-13.13Q164.40-14.64 165.07-16.18L165.07-16.18Q164.88-16.80 164.18-17.18Q163.49-17.57 162.58-17.57L162.58-17.57Q161.52-17.57 160.58-17.02Q159.65-16.46 158.93-15.48Q158.21-14.50 157.78-13.15Q157.34-11.81 157.34-10.18L157.34-10.18Q157.34-9.12 157.70-8.42Q158.06-7.73 158.59-7.73ZM181.63-9.17L181.63-9.17Q181.78-9.26 181.92-9.17Q182.06-9.07 182.02-8.88L182.02-8.88Q181.20-7.78 180.22-6.94Q179.23-6.10 178.37-6.10L178.37-6.10Q176.88-6.10 176.88-8.02L176.88-8.02Q176.88-9.65 177.46-11.64Q178.03-13.63 179.04-15.65L179.04-15.65Q179.23-15.98 179.23-16.32L179.23-16.32Q179.23-16.85 178.75-16.85L178.75-16.85Q176.98-16.85 174.84-14.40Q172.70-11.95 170.88-6.72L170.88-6.72Q170.78-6.43 170.35-6.26Q169.92-6.10 169.54-6.10L169.54-6.10Q169.01-6.10 169.15-6.53L169.15-6.53Q169.97-8.59 170.86-11.18Q171.74-13.78 172.42-16.32L172.42-16.32Q172.61-17.23 172.08-17.23L172.08-17.23Q171.60-17.23 171.12-16.75Q170.64-16.27 170.11-15.50L170.11-15.50Q170.02-15.41 169.90-15.55Q169.78-15.70 169.82-15.84L169.82-15.84Q170.35-16.66 171.26-17.52Q172.18-18.38 173.23-18.38L173.23-18.38Q174.43-18.38 174.05-16.75L174.05-16.75Q173.86-15.70 173.52-14.52Q173.18-13.34 172.80-12.19L172.80-12.19Q173.47-13.49 174.38-14.64Q175.30-15.79 176.28-16.61Q177.26-17.42 178.25-17.90Q179.23-18.38 180.10-18.38L180.10-18.38Q180.67-18.38 180.98-18.10Q181.30-17.81 181.30-17.42L181.30-17.42Q181.30-16.80 181.01-16.18L181.01-16.18Q180.00-14.35 179.30-12.36Q178.61-10.37 178.61-8.69L178.61-8.69Q178.61-7.49 179.38-7.49L179.38-7.49Q180.38-7.49 181.63-9.17ZM210.96-42.38L210.96-42.38Q212.21-42.38 212.54-41.42Q212.88-40.46 212.21-39.02L212.21-39.02Q211.82-38.74 211.73-39.17L211.73-39.17Q211.82-39.84 211.34-40.22Q210.86-40.61 210.00-40.61L210.00-40.61Q208.27-40.61 206.50-39.41Q204.72-38.21 203.04-36.07Q201.36-33.94 199.78-31.06Q198.19-28.18 196.85-24.82Q195.50-21.46 194.42-17.78Q193.34-14.11 192.67-10.42L192.67-10.42Q192.48-9.31 192.58-8.47Q192.67-7.63 193.25-7.63L193.25-7.63Q193.78-7.63 194.30-8.18Q194.83-8.74 195.26-9.41L195.26-9.41Q195.36-9.50 195.53-9.41Q195.70-9.31 195.65-9.12L195.65-9.12Q195.41-8.69 194.98-8.16Q194.54-7.63 194.04-7.18Q193.54-6.72 193.01-6.41Q192.48-6.10 192.05-6.10L192.05-6.10Q191.23-6.10 190.92-6.79Q190.61-7.49 190.70-8.59L190.70-8.59Q190.75-9.41 190.90-10.13Q191.04-10.85 191.23-11.66L191.23-11.66Q190.80-10.66 190.08-9.72Q189.36-8.78 188.59-8.02Q187.82-7.25 187.08-6.74Q186.34-6.24 185.81-6.10L185.81-6.10Q184.99-6.10 184.25-6.79Q183.50-7.49 183.50-9.02L183.50-9.02Q183.50-10.85 184.13-12.55Q184.75-14.26 185.83-15.55Q186.91-16.85 188.33-17.64Q189.74-18.43 191.38-18.43L191.38-18.43Q191.90-18.43 192.31-18.29Q192.72-18.14 193.06-17.90L193.06-17.90Q193.92-20.50 195.14-23.33Q196.37-26.16 197.81-28.87Q199.25-31.58 200.86-34.03Q202.46-36.48 204.17-38.33Q205.87-40.18 207.60-41.28Q209.33-42.38 210.96-42.38ZM186.67-7.78L186.67-7.78Q187.20-7.78 187.94-8.38Q188.69-8.98 189.43-9.94Q190.18-10.90 190.87-12.17Q191.57-13.44 192.05-14.78L192.05-14.78Q192.19-15.26 192.34-15.70Q192.48-16.13 192.58-16.56L192.58-16.56Q192.38-17.14 191.86-17.40Q191.33-17.66 190.66-17.66L190.66-17.66Q189.65-17.66 188.69-17.06Q187.73-16.46 186.98-15.41Q186.24-14.35 185.78-12.91Q185.33-11.47 185.33-9.74L185.33-9.74Q185.33-8.74 185.74-8.26Q186.14-7.78 186.67-7.78Z"></path></g></g></svg>